# ProBuilder 5.1.1
# https://unity3d.com/unity/features/worldbuilding/probuilder
# 5/5/2024 2:15:13 AM

mtllib ./HexTileWall.mtl
o HexTileWall

g HexTileWall
v -0.5 -0.05 0.8660254
v -1 -2 0
v -1 -0.05 0
v -0.5 -2 0.8660254
v 0.5000001 -0.05 0.8660254
v 0.5 -2 0.8660254
v 1 -0.05 -5.960464E-08
v 1 -2 0
v 0.4999999 -0.05 -0.8660254
v 0.5 -2 -0.8660254
v -0.4999999 -0.05 -0.8660254
v -0.5 -2 -0.8660254
v 0.4749999 0 -0.8227242
v -0.4749999 0 -0.8227242
v 0.95 0 -5.662441E-08
v 0.4750001 0 0.8227241
v -0.475 0 0.8227242
v -0.95 0 0
v 0 0 0

vt 0.5000001 -0.05
vt -0.5 -0.25
vt -0.5 -0.05
vt 0.5000001 -0.25
vt 0.4999999 -0.05
vt -0.4999999 -0.25
vt -0.4999999 -0.05
vt 0.4999999 -0.25
vt -0.4749999 -0.5385995
vt 0.4999999 -0.6047433
vt -0.4999999 -0.6047433
vt 0.4749999 -0.5385995
vt -0.6717516 0.2538981
vt -0.3889087 -0.6815162
vt -0.7424622 0.2538981
vt -0.3358757 -0.6347455
vt -0.3358758 0.6347455
vt -0.7424622 -0.2538981
vt -0.3889088 0.6815162
vt -0.6717515 -0.2538981
vt -0.4750001 -0.5385994
vt 0.5 -0.6047432
vt -0.5000001 -0.6047432
vt 0.6717515 -0.2538981
vt 0.3889087 0.6815162
vt 0.7424622 -0.2538981
vt 0.3358757 0.6347455
vt 0.3358757 -0.6347455
vt 0.7424622 0.2538981
vt 0.3889087 -0.6815163
vt 0.6717516 0.2538981
vt 0.4749999 -0.8227242
vt -0.4749999 -0.8227242
vt 0 0
vt 0.95 0
vt -0.95 -5.662441E-08
vt 0.475 0.8227242
vt -0.4750001 0.8227241

vn -0.8660254 7.641621E-09 0.5
vn -0.8660254 1.528324E-08 0.5
vn 0 3.056648E-08 1
vn 0.8660254 -1.118811E-08 0.4999999
vn 0.8660253 2.647135E-08 -0.5000001
vn 0.8660254 6.822594E-08 -0.5
vn 0 3.056648E-08 -1
vn -0.8660253 3.411297E-08 -0.5000001
vn -0.8660254 0 -0.5
vn 0 0.6546528 -0.7559297
vn 0.6546538 0.6546535 -0.3779646
vn 0.6546537 0.6546538 0.3779643
vn 4.742827E-08 0.6546533 0.7559292
vn -0.6546538 0.6546535 0.3779645
vn -0.6546538 0.6546535 -0.3779646
vn 0 1 0

usemtl Tile_Wall
f 4/4/2 1/1/1 3/3/1 2/2/1
f 6/4/3 5/1/3 1/3/3 4/2/3
f 8/4/4 7/1/4 5/3/4 6/2/4
f 10/4/6 9/1/5 7/3/5 8/2/5
f 12/8/7 11/5/7 9/7/7 10/6/7
f 2/4/9 3/1/8 11/3/8 12/2/8
f 14/12/10 13/9/10 9/11/10 11/10/10
f 13/16/11 15/13/11 7/15/11 9/14/11
f 15/20/12 16/17/12 5/19/12 7/18/12
f 16/12/13 17/21/13 1/23/13 5/22/13
f 17/27/14 18/24/14 3/26/14 1/25/14
f 18/31/15 14/28/15 11/30/15 3/29/15
f 19/34/16 15/36/16 13/33/16 14/32/16
f 17/37/16 19/34/16 14/32/16 18/35/16
f 19/34/16 17/37/16 16/38/16 15/36/16

